<?xml version="1.0" encoding="utf-8"?>
<!-- Generator: Adobe Illustrator 21.0.0, SVG Export Plug-In . SVG Version: 6.00 Build 0)  -->
<svg width="176" hight="38" version="1.1" id="Layer_1" xmlns="http://www.w3.org/2000/svg" xmlns:xlink="http://www.w3.org/1999/xlink" x="0px" y="0px"
	 viewBox="0 0 176 38" style="enable-background:new 0 0 176 38;" xml:space="preserve">
<style type="text/css">
	.st0{fill:#1E83F0;}
	.st1{fill:#1B66AA;}
	.st2{fill:#459AE5;}
	.st3{fill:#FFFFFF;}
</style>
<g>
	<path class="st0" d="M176,0.1h-32l-8.9,11.8h31.7L176,0.1z"/>
	<path class="st0" d="M175.2,26.1h-32L134.3,38h31.7L175.2,26.1z"/>
	<path class="st1" d="M144.1,0l18,11.9h-3.8L144.1,0z"/>
	<path class="st1" d="M166,37.9l-14-11.8h-3.9L166,37.9z"/>
	<path class="st2" d="M144,0.1l-8.9,11.7c0,0,0,0.1,0,0.1l30.9,26l9.1-11.8L144,0.1z"/>
</g>
<g>
	<path class="st3" d="M10.8,29.8c0.9-0.7,1.7-1.4,2.4-2s1.3-1.4,1.7-2.2c0.5-0.8,0.9-1.9,1.2-3c0.3-1.2,0.5-2.7,0.6-4.5l6.5,0.4
		c-0.1,2.2-0.4,4.1-0.8,5.7c-0.4,1.6-0.9,3-1.6,4.3s-1.5,2.4-2.5,3.4c-1,1-2.1,2-3.4,3.1L10.8,29.8z"/>
	<path class="st3" d="M33.1,26.1c-4.7,0-7.1-2.1-7.1-6.3V4h6.5v13.4c0,0.4,0.1,0.9,0.4,1.4c0.2,0.5,0.8,0.8,1.5,0.8H35v6.5H33.1z"/>
	<path class="st3" d="M48.3,14.9v5.8c0,0.8-0.2,1.6-0.5,2.2c-0.3,0.7-0.8,1.2-1.3,1.7c-0.5,0.5-1.1,0.8-1.7,1.1
		c-0.6,0.3-1.2,0.4-1.6,0.4H35c-0.2,0-0.4-0.1-0.6-0.2c-0.2-0.1-0.3-0.2-0.3-0.4v-5.4c0-0.2,0.1-0.3,0.3-0.4
		c0.2-0.1,0.4-0.1,0.6-0.1h4.4c0.3,0,0.5,0,0.8,0c0.3,0,0.5-0.1,0.8-0.3c0.2-0.2,0.4-0.4,0.6-0.7c0.1-0.3,0.2-0.8,0.2-1.3v-2.4H48.3
		z M34.4,29.6H46v5.5H34.4V29.6z"/>
	<path class="st3" d="M66,23.5c-0.4,0.6-0.8,1-1.3,1.4c-0.5,0.3-1.1,0.6-1.7,0.8c-0.6,0.2-1.3,0.3-1.9,0.4s-1.3,0.1-2,0.1h-7.6v-6.5
		h6.1c1,0,1.5-0.4,1.5-1.2c0-0.3-0.1-0.8-0.4-1.3l-2.6-5.2l5.8-2.8l2.8,5.8c0.4,0.9,0.8,1.8,1.2,2.8c0.4,1,0.6,2,0.6,3.1
		c0,0.5-0.1,0.9-0.2,1.4C66.5,22.6,66.3,23.1,66,23.5z"/>
	<path class="st3" d="M77,26.1c-4.7,0-7.1-2.1-7.1-6.3V4h6.5v13.4c0,0.4,0.1,0.9,0.4,1.4c0.2,0.5,0.8,0.8,1.5,0.8h0.6v6.5H77z"/>
	<path class="st3" d="M90.5,26.1c-1.9,0-3.4-0.3-4.4-1c-0.2-0.1-0.5-0.2-0.7-0.5c-0.2,0.2-0.4,0.4-0.6,0.5c-1.1,0.7-2.6,1-4.4,1
		h-1.5c-0.2,0-0.5-0.1-0.7-0.2c-0.2-0.1-0.4-0.2-0.4-0.4v-5.4c0-0.2,0.1-0.3,0.4-0.4c0.3-0.1,0.5-0.1,0.7-0.1h1.5
		c0.6,0,1-0.2,1.4-0.6c0.3-0.4,0.5-0.9,0.5-1.6V15h6.4v2.5c0,0.5,0.2,1,0.5,1.5c0.3,0.5,0.8,0.7,1.4,0.7h1.5v6.5H90.5z M79.6,4.9
		h11.5v5.5H79.6V4.9z"/>
	<path class="st3" d="M117.8,19.7v6.5H92.1c-0.2,0-0.5-0.1-0.7-0.2c-0.2-0.1-0.4-0.2-0.4-0.4v-5.4c0-0.2,0.1-0.3,0.4-0.4
		c0.3-0.1,0.5-0.1,0.7-0.1H117.8z"/>
	<path class="st3" d="M120.9,4h6.6v22.1h-6.6V4z"/>
</g>
</svg>
