<svg id="Layer_1" width="176" hight="38" data-name="Layer 1" xmlns="http://www.w3.org/2000/svg" viewBox="0 0 165.17 37.92"><defs><style>.cls-1{fill:#1e83f0;}.cls-2{fill:#1b66aa;}.cls-3{fill:#459ae5;}.cls-4{fill:#114684;}</style></defs><title>logo_default</title><path class="cls-1" d="M176,.09H144l-8.91,11.82h31.74Z" transform="translate(-10.83 -0.04)"/><path class="cls-1" d="M175.19,26.14h-32L134.33,38h31.74Z" transform="translate(-10.83 -0.04)"/><path class="cls-2" d="M144.09,0l18,11.87h-3.85Z" transform="translate(-10.83 -0.04)"/><path class="cls-2" d="M166,37.91l-14-11.76h-3.93Z" transform="translate(-10.83 -0.04)"/><path class="cls-3" d="M144,.09l-8.86,11.74a.1.1,0,0,0,0,.13l30.86,26,9.13-11.81Z" transform="translate(-10.83 -0.04)"/><path class="cls-4" d="M10.83,29.83q1.34-1.08,2.35-2a9.86,9.86,0,0,0,1.74-2.23,11.52,11.52,0,0,0,1.15-3,27.1,27.1,0,0,0,.6-4.48l6.48.42a33,33,0,0,1-.81,5.7,18.07,18.07,0,0,1-1.6,4.25,15.92,15.92,0,0,1-2.47,3.41,31.22,31.22,0,0,1-3.39,3.05Z" transform="translate(-10.83 -0.04)"/><path class="cls-4" d="M33.13,26.14q-7.05,0-7.05-6.31V4h6.48V17.46a3.37,3.37,0,0,0,.36,1.43,1.51,1.51,0,0,0,1.53.77H35v6.48Z" transform="translate(-10.83 -0.04)"/><path class="cls-4" d="M48.29,14.89v5.84A4.85,4.85,0,0,1,47.78,23a5.64,5.64,0,0,1-1.31,1.7,6.35,6.35,0,0,1-1.69,1.08,4.23,4.23,0,0,1-1.65.38H35a1,1,0,0,1-.63-.2c-.18-.13-.27-.25-.27-.35V20.17c0-.16.11-.29.32-.37a1.54,1.54,0,0,1,.58-.13h4.42a8.08,8.08,0,0,0,.82,0,1.53,1.53,0,0,0,.77-.3,1.86,1.86,0,0,0,.56-.73,3.18,3.18,0,0,0,.22-1.31v-2.4ZM34.43,29.61H46v5.54H34.43Z" transform="translate(-10.83 -0.04)"/><path class="cls-4" d="M66,23.48a4.31,4.31,0,0,1-1.32,1.37,7.08,7.08,0,0,1-1.71.81,8.74,8.74,0,0,1-1.91.38q-1,.09-2,.09H51.5V19.66h6.11q1.54,0,1.54-1.21a3.54,3.54,0,0,0-.35-1.32l-2.57-5.21,5.84-2.83,2.83,5.84q.64,1.3,1.24,2.81a8.24,8.24,0,0,1,.6,3.08,6.08,6.08,0,0,1-.15,1.35A4,4,0,0,1,66,23.48Z" transform="translate(-10.83 -0.04)"/><path class="cls-4" d="M77,26.14q-7.05,0-7.05-6.31V4h6.48V17.46a3.37,3.37,0,0,0,.36,1.43,1.51,1.51,0,0,0,1.53.77h.57v6.48Z" transform="translate(-10.83 -0.04)"/><path class="cls-4" d="M90.55,26.14a8.21,8.21,0,0,1-4.39-1,1.27,1.27,0,0,1-.68-.46,1.8,1.8,0,0,1-.64.46,8.74,8.74,0,0,1-4.44,1H78.86a1.48,1.48,0,0,1-.71-.2c-.24-.13-.36-.25-.36-.35V20.17c0-.16.13-.29.41-.37a2.28,2.28,0,0,1,.67-.13h1.54a1.65,1.65,0,0,0,1.35-.6,2.44,2.44,0,0,0,.49-1.59V15h6.42v2.48A2.71,2.71,0,0,0,89.11,19a1.59,1.59,0,0,0,1.44.69h1.54v6.48ZM79.63,4.85H91.14v5.54H79.63Z" transform="translate(-10.83 -0.04)"/><path class="cls-4" d="M117.77,19.66v6.48H92.08a1.48,1.48,0,0,1-.71-.2c-.24-.13-.36-.25-.36-.35V20.17c0-.16.13-.29.41-.37a2.28,2.28,0,0,1,.67-.13Z" transform="translate(-10.83 -0.04)"/><path class="cls-4" d="M120.93,4h6.57v22.1h-6.57Z" transform="translate(-10.83 -0.04)"/></svg>